<svg width="103" height="126" viewBox="0 0 103 126" fill="none" xmlns="http://www.w3.org/2000/svg">
<path d="M7.02334 47.7518C22.6154 34.4489 44.6014 32.4213 61.522 37.0015C69.8621 39.2603 77.653 44.1827 79.3903 53.0494C80.137 56.8774 79.6565 61.1758 77.3977 64.9521C76.0266 67.2517 73.8051 69.6614 71.0506 69.7527C66.8582 69.8856 67.2775 65.2023 70.2374 62.8954C75.7369 58.6047 82.0304 64.8109 84.6175 68.3054C87.6402 72.4072 89.3783 77.3503 90.6895 82.3898C91.0642 83.8296 93.4089 82.6764 93.0274 81.2444C91.4216 75.2264 89.1477 69.2921 85.003 64.7885C81.9932 61.5191 77.5064 58.2924 72.2214 59.6326C68.3738 60.6157 64.7255 64.9284 65.5704 68.6902C66.4579 72.6566 71.588 72.8941 75.0104 70.7033C84.6271 64.5623 83.0634 50.9748 78.2927 44.442C71.6526 35.3528 58.0921 33.009 46.4855 32.9233C32.6471 32.7991 17.8315 36.7927 6.39627 46.9632C5.83148 47.4653 6.44177 48.2486 7.02334 47.7518Z" fill="#C4C4C4"/>
<path d="M81.4181 81.7423C83.4079 79.924 88.1455 85.4828 89.0357 86.3175C89.788 87.0301 90.6391 87.9147 91.9532 87.2111C93.3542 86.4562 93.5263 84.2386 93.8487 83.0585C94.6389 80.0981 95.5193 77.1334 96.1754 74.1636C96.4978 72.7146 94.3891 72.7087 93.9648 74.0797C93.2274 76.4764 92.6489 78.897 92.0182 81.3077C91.8733 81.8193 91.5094 84.642 90.873 84.8118C90.734 84.8532 89.5695 83.4075 89.495 83.3381C87.73 81.7096 84.2146 79.0539 81.2895 80.0331C81.1119 80.0783 80.9444 80.1748 80.81 80.3091C80.6755 80.4435 80.5808 80.6091 80.5389 80.7832L80.4141 81.2586C80.392 81.3836 80.4073 81.5064 80.4579 81.6119C80.5085 81.7173 80.5922 81.8009 80.6989 81.8523C80.8055 81.9037 80.9304 81.9206 81.0582 81.9011C81.186 81.8816 81.3111 81.8264 81.4181 81.7423Z" fill="#C4C4C4"/>
<path d="M5.47683 41.887C5.24435 42.0078 5.04277 42.1883 4.89734 42.406C4.75191 42.6236 4.66911 42.8688 4.6593 43.1107C4.64949 43.3526 4.71312 43.5805 4.8422 43.7659C4.97129 43.9513 5.1601 44.0858 5.38497 44.1528C5.48167 44.1841 5.58954 44.1875 5.69713 44.1625C5.80473 44.1376 5.90803 44.0852 5.99609 44.011C6.37187 43.677 6.66024 43.2599 6.82831 42.8073C6.99639 42.3546 7.0374 41.8845 6.94668 41.4507C6.93374 41.3136 6.87558 41.1911 6.78057 41.1009C6.68555 41.0106 6.55859 40.9573 6.41794 40.9485C4.52576 41.0737 3.86136 43.3091 3.9966 44.7924C4.06552 45.5244 4.35451 46.2657 5.13306 46.4248C6.05259 46.6185 6.89408 45.8729 7.31448 45.0678C8.12316 43.5816 8.39059 41.0632 6.45494 40.7592C4.51929 40.4552 3.44664 42.9267 3.71801 44.3793C3.99996 45.9124 5.54994 46.7476 7.16287 45.8808C8.6027 45.1034 9.39484 43.2333 8.2382 42.2009C7.00019 41.1092 4.69781 41.9489 4.355 43.7835C4.2763 44.169 4.29491 44.5525 4.40915 44.8993C4.52339 45.246 4.72964 45.545 5.00925 45.7692C5.6926 46.2768 6.72267 46.1235 7.22275 45.2164C7.4902 44.6387 7.70541 44.0462 7.86557 43.4465C8.08258 42.9616 8.14827 42.4458 8.05342 41.9716C7.93659 41.6272 7.69309 41.3532 7.36474 41.1968C7.03638 41.0404 6.64365 41.0112 6.25399 41.1144C5.83318 41.1987 5.4272 41.3997 5.08613 41.6924C4.74506 41.9852 4.4838 42.357 4.33457 42.7619C3.96441 43.8442 4.34677 44.8596 4.77371 45.745C4.84063 45.9333 4.98555 46.076 5.17718 46.1423C5.36881 46.2085 5.59178 46.193 5.79794 46.0991C6.21871 45.8544 6.59869 45.5371 6.91589 45.1655C7.2331 44.7938 7.48124 44.3752 7.64597 43.9339C7.8107 43.4925 7.88875 43.0372 7.8756 42.5941C7.86246 42.1511 7.75839 41.7292 7.5694 41.3529C7.38635 41.0236 6.96301 40.749 6.51893 41.0206C6.15632 41.2462 5.84734 41.5549 5.62445 41.9143C5.40155 42.2737 5.27294 42.6705 5.25213 43.0631C5.23131 43.4558 5.31905 43.8297 5.50614 44.1457C5.69324 44.4617 5.97278 44.7081 6.31543 44.8591C7.21071 45.2628 7.92398 43.7062 7.02325 43.3141C6.96205 43.2646 6.91427 43.2012 6.88298 43.1281C6.85169 43.055 6.83758 42.9737 6.84155 42.8894C6.84551 42.8052 6.86748 42.7199 6.90603 42.639C6.94459 42.5581 6.99887 42.4833 7.06541 42.4196L6.02054 42.0891C6.14083 42.2799 6.21664 42.4988 6.2435 42.7329C6.27036 42.9671 6.24774 43.2117 6.17695 43.4525C6.10617 43.6933 5.98866 43.9253 5.83134 44.1349C5.67402 44.3445 5.48008 44.5275 5.26093 44.673L6.31125 44.9918C6.07092 44.5104 5.29662 43.16 6.17329 42.717C6.52236 42.546 6.49383 42.614 6.46727 42.8703C6.34675 43.4221 6.15887 43.968 5.90787 44.4957C5.83835 44.6378 5.87718 44.6233 6.03554 44.4557C5.9765 44.4024 5.93502 44.3328 5.91508 44.2534C5.9157 44.0459 5.82776 43.8908 5.9228 43.6595C5.96777 43.5695 6.03107 43.4872 6.10819 43.4185C6.18531 43.3498 6.27436 43.2964 6.36902 43.262C6.46368 43.2277 6.56163 43.2133 6.6559 43.2198C6.75017 43.2263 6.83847 43.2537 6.91451 43.2998C7.61652 43.5955 7.08451 44.3787 6.50948 44.6424C5.73239 45.0231 5.22159 44.3724 5.16713 43.6919C5.1492 43.4845 5.17588 43.2687 5.2455 43.058C5.31513 42.8473 5.42624 42.646 5.572 42.4665C5.98229 42.0268 6.33313 42.2918 6.41987 42.7313C6.46924 43.2162 6.38079 43.7263 6.16383 44.2081C6.02706 44.5769 5.65066 45.3289 5.47814 44.6747C5.30562 44.0205 5.41026 42.3115 6.33945 42.2302L5.68846 41.887C5.74348 42.1172 5.72935 42.3683 5.64764 42.6126C5.56593 42.857 5.41981 43.0849 5.22539 43.2715L5.93696 43.0175C5.79913 43.0174 5.76777 42.9472 5.8582 42.8083C5.99376 42.7419 6.10521 42.6289 6.16803 42.4942C6.23086 42.3596 6.23991 42.2142 6.19319 42.0901C6.14647 41.9661 6.04782 41.8735 5.91893 41.8327C5.79004 41.792 5.64148 41.8064 5.50592 41.8728L5.47683 41.887Z" fill="#C4C4C4"/>
</svg>
