<svg width="110" height="87" viewBox="0 0 110 87" fill="none" xmlns="http://www.w3.org/2000/svg">
<path d="M97.8764 7.59621C98.1091 11.7537 97.0555 15.1576 93.2853 18.4139C89.3578 21.8238 84.5019 23.4636 79.5848 23.6807C73.9775 23.9053 68.7259 22.6847 63.3467 22.0375C59.7761 21.6024 54.7857 20.7399 51.2977 23.2573C47.4681 26.0263 49.5565 30.4752 49.8552 33.6715C50.3181 38.6435 49.3589 44.3692 44.7696 48.4214C40.57 52.1077 35.8284 52.4744 31.6575 50.2666C28.8262 48.7652 26.2984 46.4665 22.874 45.8943C21.2982 45.6088 19.5709 45.868 18.0003 46.6258C16.4297 47.3835 15.1182 48.5904 14.2997 50.031C12.2384 53.6689 12.8479 57.9542 13.7175 61.3788C13.9774 62.4155 15.8419 61.8199 15.5765 60.7807C14.7436 57.4988 13.7665 52.2887 17.0653 49.1626C20.6627 45.7687 24.8931 48.421 27.726 50.1279C30.5588 51.8349 33.438 53.7501 37.2302 53.4828C41.2647 53.202 45.2004 50.7338 47.7878 47.652C50.6218 44.2676 51.7117 40.1224 51.7807 36.2627C51.7859 34.0854 51.5772 31.9433 51.157 29.8615C50.9426 28.6771 50.5272 27.3384 51.03 26.0692C51.8435 24.0132 54.2857 23.4334 56.2344 23.2829C66.2069 22.4994 75.3045 27.4016 85.6293 24.1868C89.7167 22.9063 93.4318 20.4608 96.1796 17.2422C98.5592 14.3733 100.334 10.2436 98.3297 7.45036C98.2236 7.30421 97.864 7.3641 97.8718 7.59769L97.8764 7.59621Z" fill="#C4C4C4"/>
<path d="M98.0105 7.48656C94.956 15.3398 86.5492 21.3587 77.8917 22.282C73.0148 22.7999 69.5372 21.06 65.475 19.5007C62.2536 18.2752 58.5412 17.676 54.9816 19.7933C45.7321 25.2928 48.8202 35.863 47.2416 43.4074C46.2333 48.2136 41.3685 54.6617 35.5985 52.6292C31.7723 51.2921 29.9895 47.5191 26.2456 46.0429C23.4614 44.9486 19.09 44.7055 16.5927 47.5134C15.2528 49.0162 15.0977 50.7847 15.2034 52.4645C15.3789 55.1952 15.5003 58.2593 16.3072 60.7986C16.5529 61.5544 17.909 61.3709 17.961 60.4711C18.2507 56.9753 14.61 48.3326 20.7226 47.22C25.6008 46.3295 28.2744 50.0392 31.2484 52.3706C33.7682 54.3383 37.0066 55.6189 40.7198 54.1964C44.433 52.774 47.2088 49.1791 48.4754 45.8086C50.197 41.2261 49.3885 36.588 49.8549 32.0222C50.279 27.6432 52.6049 21.5449 58.1322 20.2539C62.9027 19.1429 66.7408 22.3806 70.8152 23.4166C74.0738 24.1957 77.6479 24.0984 81.1537 23.1352C89.0449 21.0141 96.4897 15.0253 98.706 7.60772C98.7329 7.52132 98.7238 7.43398 98.6808 7.3637C98.6378 7.29343 98.5641 7.24559 98.4749 7.23005C98.3857 7.21451 98.2878 7.23246 98.2014 7.28018C98.1149 7.32791 98.0466 7.40178 98.0105 7.48656Z" fill="#C4C4C4"/>
<path d="M17.0635 51.6974C17.0317 55.711 17.1168 60.5666 18.8057 64.0977C18.8782 64.2051 18.9913 64.2832 19.1287 64.3207C19.266 64.3582 19.4204 64.3531 19.5695 64.3062C19.7185 64.2593 19.8544 64.173 19.9573 64.0598C20.0603 63.9466 20.125 63.8124 20.1421 63.6768C20.1045 61.714 19.4972 59.8615 19.1795 57.9621C18.8159 55.8107 18.5396 53.6367 18.2363 51.4712C18.2087 51.3511 18.1312 51.2511 18.0181 51.1897C17.905 51.1284 17.7639 51.1097 17.6209 51.1373C17.478 51.1649 17.3427 51.2368 17.2403 51.3397C17.1378 51.4427 17.075 51.5697 17.0635 51.6974Z" fill="#C4C4C4"/>
<path d="M14.6364 52.5006C15.8473 58.5364 16.8364 64.7339 18.6063 70.6001C18.664 70.7655 18.7964 70.8959 18.9772 70.9653C19.1579 71.0348 19.3739 71.0383 19.5822 70.9751C19.7905 70.9119 19.9758 70.7867 20.1015 70.6242C20.2271 70.4618 20.2839 70.274 20.2605 70.0982C19.1964 64.018 17.304 58.0945 15.6696 52.1872C15.6313 52.0863 15.548 52.0074 15.4358 51.9657C15.3236 51.924 15.1905 51.9225 15.0621 51.9614C14.9337 52.0004 14.8191 52.077 14.7405 52.1766C14.6619 52.2762 14.6248 52.3916 14.6364 52.5006Z" fill="#C4C4C4"/>
<path d="M15.5162 55.1951C16.9167 60.8344 18.2076 66.5219 19.7718 72.1115C20.0074 72.9504 21.6055 72.4703 21.3857 71.6217C19.922 65.9966 18.192 60.4473 16.5771 54.8731C16.5496 54.7574 16.4674 54.6634 16.3485 54.6118C16.2296 54.5602 16.0837 54.5552 15.943 54.5979C15.8024 54.6406 15.6784 54.7275 15.5983 54.8395C15.5183 54.9515 15.4888 55.0794 15.5162 55.1951Z" fill="#C4C4C4"/>
<path d="M17.5548 47.9398C17.687 57.0528 18.9323 65.9732 21.2704 74.5538C21.5789 75.6695 23.6717 75.0352 23.3776 73.905C21.0994 65.3822 19.551 56.6295 18.7441 47.7126C18.6995 47.1408 17.5369 47.3549 17.5548 47.9398Z" fill="#C4C4C4"/>
<path d="M24.3303 63.5419C23.699 67.8392 22.6641 72.1353 21.2383 76.3771L22.9663 75.7978C19.2083 71.5691 14.8257 67.6436 9.81151 64.7139C8.71266 64.0681 7.61531 65.7271 8.30883 66.5463C10.8413 69.5333 13.4768 72.4246 16.252 75.1987C17.4975 76.462 18.699 78.0499 20.1801 79.0183C20.7701 79.3746 21.2394 79.7196 22.0499 79.3963C24.1732 78.5483 24.999 73.7736 25.4528 72.0627C26.3864 68.5136 26.7897 64.9354 26.6499 61.4403C26.6591 61.1624 26.5548 60.9092 26.3587 60.7333C26.1626 60.5574 25.8899 60.4724 25.5973 60.4961C25.3047 60.5197 25.0149 60.6501 24.7881 60.8602C24.5614 61.0702 24.4152 61.3437 24.3801 61.6237C23.4592 67.8857 22.524 74.1526 21.0925 80.4074L23.1444 79.9731C20.3594 76.282 17.8584 72.3549 14.8945 68.7896C14.2857 68.0546 12.9521 69.1825 13.3832 69.977C15.5486 73.9462 18.4469 77.5898 21.1461 81.2157C21.5918 81.8128 22.961 81.7952 23.198 80.7814C24.713 74.339 25.703 67.8942 26.6499 61.4403L24.3801 61.6237C24.4878 64.1634 24.3053 66.7508 23.8356 69.3418C23.5202 70.9806 23.0804 72.6142 22.5197 74.2291C22.2785 74.7878 22.0676 75.3538 21.8877 75.9246L21.5522 76.7649C22.0322 77.4021 22.0441 77.4826 21.5766 77.0008C19.3581 75.6599 17.5377 73.1197 15.784 71.2803C13.8017 69.2123 11.907 67.0726 10.0596 64.889L8.5578 66.7258C13.5128 69.619 17.2589 73.5982 21.4473 77.3118C21.5659 77.4179 21.7165 77.4881 21.8845 77.5155C22.0525 77.543 22.2322 77.5268 22.4062 77.4684C22.5801 77.4101 22.7424 77.3117 22.8772 77.1827C23.0119 77.0538 23.1146 76.8987 23.1753 76.7325C24.536 72.3323 25.3078 67.8717 25.4708 63.4647C25.4697 63.3308 25.4151 63.2104 25.318 63.1272C25.2208 63.0441 25.0882 63.0043 24.9463 63.0158C24.8045 63.0273 24.6638 63.0893 24.5522 63.1894C24.4405 63.2894 24.3661 63.4204 24.3436 63.5562L24.3303 63.5419Z" fill="#C4C4C4"/>
</svg>
