<svg width="159" height="143" viewBox="0 0 159 143" fill="none" xmlns="http://www.w3.org/2000/svg">
<path d="M147.526 32.447C138.793 53.5513 121.898 72.8092 100.724 83.0593C90.075 88.1835 79.0549 89.7746 69.5254 84.6291C59.8547 79.3568 52.2984 71.0554 39.1653 74.5384C24.9255 78.3024 16.2676 92.5785 18.8265 105.633C19.2935 108.01 15.5344 109.274 14.9491 106.943C12.5195 97.2723 16.5925 85.4312 24.9906 78.0195C29.3041 74.2731 34.4498 71.6623 39.8351 70.4878C45.2204 69.3133 50.6263 69.6228 55.4303 71.3808C65.9553 75.3783 72.5015 85.5404 85.3501 84.6113C97.7493 83.7158 110.516 75.4021 120.155 67.0595C131.4 57.4087 140.286 45.3847 145.945 32.1593C146.373 31.1528 147.96 31.4375 147.535 32.4673L147.526 32.447Z" fill="#C4C4C4"/>
<path d="M6.39874 91.7016C11.2764 97.7671 15.8963 104.028 20.4517 110.338L17.3125 110.604C21.716 104.574 26.1356 98.5525 30.5712 92.5403L32.52 95.1057C22.8676 98.8472 13.5167 96.3942 4.8165 93.724L6.8226 90.4168C10.542 94.9421 14.9196 98.8682 19.8411 102.093L17.1058 104.897C15.1177 101.636 12.5393 98.8147 9.47964 96.5515C7.87873 95.3555 10.2559 92.2662 11.9347 93.3792L21.7133 99.8505C23.251 100.874 22.2098 104.039 20.0629 103.438C18.8545 103.147 17.7565 102.595 16.8396 101.819C15.9228 101.042 15.2075 100.058 14.7399 98.93C14.5115 98.5227 14.4688 98.0181 14.621 97.5273C14.7733 97.0366 15.1082 96.5998 15.552 96.313C15.9958 96.0263 16.5122 95.9131 16.9875 95.9984C17.4629 96.0837 17.8582 96.3604 18.0866 96.7677C19.5298 98.9169 20.9521 101.073 22.3536 103.236L19.4141 103.098C21.4585 100.744 23.33 98.2542 25.0104 95.6524L27.8622 97.681C25.2454 100.957 22.1838 103.873 18.7882 106.322L17.0657 103.251C18.1571 102.476 18.3763 101.585 17.7497 100.557C17.53 100.341 17.3788 100.063 17.3111 99.7516C17.2433 99.4396 17.2612 99.104 17.363 98.7777C17.4649 98.4514 17.6472 98.1456 17.8921 97.8904C18.1369 97.6352 18.4359 97.4393 18.7596 97.322C20.5606 96.5257 21.8727 96.8691 23.2248 97.8469C24.0026 98.4105 23.7746 99.7952 23.093 100.505L21.2542 102.421C21.0098 102.683 20.7077 102.884 20.3796 103.003C20.0514 103.121 19.7092 103.153 19.389 103.095C19.0687 103.037 18.7821 102.891 18.5592 102.672C18.3363 102.454 18.1853 102.171 18.1221 101.853L18.0675 101.635C17.9996 101.321 18.0198 100.984 18.1261 100.657C18.2324 100.33 18.4209 100.026 18.6723 99.7748C18.9206 99.5026 19.2207 99.2827 19.5496 99.132C19.8786 98.9812 20.2277 98.9036 20.57 98.9052C20.8973 98.8824 21.2133 98.944 21.4877 99.084C21.7621 99.2239 21.9857 99.4377 22.137 99.7046C23.2093 102.417 20.9429 106.973 20.0877 109.814C19.3731 112.184 15.9584 111.483 16.5744 109.134C16.9314 107.813 17.273 106.553 17.6299 105.231C17.8142 104.567 18.8978 102.203 18.7624 101.869L20.3211 102.666L21.1925 102.187L21.7973 100.327L21.8436 100.542L18.7115 99.9743L20.542 98.0565L20.4044 100.718L19.5174 100.857L20.5273 97.6225C22.7161 100.21 22.0338 104.095 18.768 106.293C16.6023 107.753 14.9664 104.714 17.0454 103.222C20.1475 100.947 22.94 98.2498 25.3228 95.226C26.7536 93.4276 29.4004 95.3679 28.1746 97.2546C26.3086 100.141 24.229 102.902 21.9564 105.511C21.046 106.561 19.5858 106.272 19.017 105.373L14.7375 98.9246L18.0842 96.7624C18.3323 97.4845 18.7429 98.1223 19.2881 98.6318C19.8332 99.1414 20.4998 99.5107 21.2422 99.7144L19.5976 103.298L9.84208 96.8144L12.2971 93.6421C15.5898 96.1079 18.3589 99.1757 20.4871 102.715C21.3705 104.172 19.2554 106.514 17.7605 105.555C12.5666 102.177 7.94352 98.0597 4.01185 93.3092C3.02432 92.1174 4.10045 89.4155 6.02036 90.0073C14.0859 92.4975 22.7749 95.0466 31.7492 91.5575C33.2381 90.9796 34.7322 92.7234 33.7003 94.1283C29.2608 100.143 24.8156 106.16 20.3645 112.181C20.1805 112.457 19.9359 112.692 19.6529 112.864C19.3699 113.036 19.0576 113.14 18.7445 113.167C18.4315 113.193 18.1277 113.141 17.8608 113.014C17.594 112.888 17.3727 112.693 17.2171 112.445C12.8098 106.161 8.4833 99.8325 4.38762 93.3771C3.70083 92.2946 5.59799 90.7018 6.40837 91.7231L6.39874 91.7016Z" fill="#C4C4C4"/>
</svg>
