<svg width="71" height="69" viewBox="0 0 71 69" fill="none" xmlns="http://www.w3.org/2000/svg">
<g clip-path="url(#clip0)">
<path d="M39.6337 16.5205L44.4378 12.668L39.6337 8.81594V0.202545H0.737671V26.4816H39.6337V16.5205ZM37.6005 24.4604H2.77081V2.22377H37.6005V9.78225L41.1995 12.668L37.6005 15.5542V24.4604Z" fill="#F8C272"/>
<path d="M31.2311 35.5111V44.1245L26.427 47.9771L31.2311 51.8291V61.7902H70.2624V35.5111H31.2311ZM68.2292 59.7689H33.2637V50.8628L29.6653 47.9771L33.2637 45.0908V37.5324H68.2292V59.7689Z" fill="#F8C272"/>
<path d="M23.6555 51.6962L17.8064 49.8037V48.8527H19.3723C22.1751 48.8527 24.4549 46.5857 24.4549 43.7991V39.0826C24.4549 36.2781 23.3484 33.644 21.3396 31.6649C19.3304 29.6859 16.6665 28.6115 13.8478 28.6379C8.11332 28.6943 3.44818 33.4335 3.44818 39.2023V43.7991C3.44818 46.5857 5.72797 48.8527 8.53024 48.8527H9.78948V49.8111L4.19927 51.6814C2.12899 52.374 0.737671 54.2992 0.737671 56.4713V69.135H2.77081V64.6205H5.34553V69.135H7.37867V59.7014H5.34553V62.5988H2.77081V56.4713C2.77081 55.1679 3.60518 54.0128 4.84745 53.5977L7.16438 52.8223L14.0054 58.6529L20.0332 52.6499L23.0264 53.6183C24.2862 54.026 25.1322 55.1848 25.1322 56.5019V62.5988H22.4217V59.7014H20.3891V69.135H22.4217V64.6205H25.1322V69.135H27.1654V56.5019C27.1654 54.3066 25.7549 52.3756 23.6555 51.6962ZM8.53024 46.8315C6.84877 46.8315 5.48132 45.4712 5.48132 43.7991V39.2023C5.48132 34.537 9.24314 30.705 13.8674 30.6591C16.1441 30.6359 18.2886 31.5051 19.9091 33.1012C21.5295 34.6973 22.4217 36.8214 22.4217 39.0826V43.7991C22.4217 45.4712 21.0537 46.8315 19.3723 46.8315H18.5103C19.6704 45.6732 20.3891 44.0766 20.3891 42.317C20.3891 39.3073 17.9268 36.8588 14.9002 36.8588H7.51393V42.317C7.51393 44.0766 8.23214 45.6732 9.39219 46.8315H8.53024ZM9.54708 42.317V38.88H14.9002C16.8055 38.88 18.356 40.4218 18.356 42.317C18.356 44.7317 16.3801 46.6964 13.9513 46.6964C11.5229 46.6964 9.54708 44.7317 9.54708 42.317ZM13.8977 55.899L9.40757 52.0718L11.8226 51.2637V48.3569C12.4894 48.59 13.2055 48.7182 13.9513 48.7182C14.5841 48.7182 15.1951 48.6254 15.7733 48.4555V51.2716L17.8648 51.9483L13.8977 55.899Z" fill="#F8C272"/>
<path d="M45.2637 18.9331C43.1934 19.6257 41.8021 21.5509 41.8021 23.723V32.0742H43.8347V23.723C43.8347 22.4196 44.6696 21.265 45.9119 20.8494L51.5626 18.9584C52.4447 19.8013 53.6121 20.2744 54.8624 20.2744C56.1153 20.2744 57.2843 19.7992 58.167 18.9537L64.0908 20.8705C65.3506 21.2782 66.1966 22.4365 66.1966 23.7541V32.0747H68.2292V23.7541C68.2292 21.5588 66.8188 19.6272 64.7199 18.9484L58.8703 17.0554V14.6923C60.4372 13.5235 61.453 11.6616 61.453 9.56861V6.46874C61.453 2.93899 58.5653 0.0675049 55.0157 0.0675049C51.466 0.0675049 48.5784 2.93899 48.5784 6.46874V9.56861C48.5784 11.5213 49.4631 13.2714 50.8539 14.4465V17.0627L45.2637 18.9331ZM56.8377 17.4183C56.3227 17.952 55.6188 18.2527 54.8624 18.2527C54.106 18.2527 53.4016 17.952 52.887 17.4183V15.6085C53.5538 15.8417 54.2699 15.9698 55.0157 15.9698C55.6485 15.9698 56.2595 15.877 56.8377 15.7072V17.4183ZM55.0157 2.08925C57.4445 2.08925 59.4204 4.05404 59.4204 6.46874V7.12806L57.7405 5.45813H50.7308C51.1913 3.52921 52.9369 2.08925 55.0157 2.08925ZM50.611 9.56861V7.47988H56.8987L59.4013 9.96843C59.1976 12.1964 57.3087 13.9486 55.0157 13.9486C52.5868 13.9486 50.611 11.9833 50.611 9.56861Z" fill="#F8C272"/>
<path d="M46.4099 26.9531H48.4426V32.0742H46.4099V26.9531Z" fill="#F8C272"/>
<path d="M61.453 26.9531H63.4861V32.0742H61.453V26.9531Z" fill="#F8C272"/>
<path d="M22.7607 12.2639H24.7933V14.2852H22.7607V12.2639Z" fill="#F8C272"/>
<path d="M10.5634 12.2639H12.596V14.2852H10.5634V12.2639Z" fill="#F8C272"/>
<path d="M18.6949 12.2639H20.7275V14.2852H18.6949V12.2639Z" fill="#F8C272"/>
<path d="M14.6292 12.2639H16.6618V14.2852H14.6292V12.2639Z" fill="#F8C272"/>
<path d="M30.8922 12.2639H32.9248V14.2852H30.8922V12.2639Z" fill="#F8C272"/>
<path d="M26.8264 12.2639H28.859V14.2852H26.8264V12.2639Z" fill="#F8C272"/>
<path d="M6.49762 12.2639H8.53023V14.2852H6.49762V12.2639Z" fill="#F8C272"/>
<path d="M27.1654 8.15344H29.198V10.1752H27.1654V8.15344Z" fill="#F8C272"/>
<path d="M10.9023 8.15344H12.935V10.1752H10.9023V8.15344Z" fill="#F8C272"/>
<path d="M23.0996 8.15344H25.1322V10.1752H23.0996V8.15344Z" fill="#F8C272"/>
<path d="M19.0338 8.15344H21.0665V10.1752H19.0338V8.15344Z" fill="#F8C272"/>
<path d="M14.9681 8.15344H17.0007V10.1752H14.9681V8.15344Z" fill="#F8C272"/>
<path d="M10.9023 16.3744H12.935V18.3956H10.9023V16.3744Z" fill="#F8C272"/>
<path d="M23.0996 16.3744H25.1322V18.3956H23.0996V16.3744Z" fill="#F8C272"/>
<path d="M19.0338 16.3744H21.0665V18.3956H19.0338V16.3744Z" fill="#F8C272"/>
<path d="M14.9681 16.3744H17.0007V18.3956H14.9681V16.3744Z" fill="#F8C272"/>
<path d="M27.1654 16.3744H29.198V18.3956H27.1654V16.3744Z" fill="#F8C272"/>
<path d="M62.334 47.0335H64.3672V49.0552H62.334V47.0335Z" fill="#F8C272"/>
<path d="M46.071 47.0335H48.1041V49.0552H46.071V47.0335Z" fill="#F8C272"/>
<path d="M54.2025 47.0335H56.2357V49.0552H54.2025V47.0335Z" fill="#F8C272"/>
<path d="M58.2683 47.0335H60.3014V49.0552H58.2683V47.0335Z" fill="#F8C272"/>
<path d="M50.1367 47.0335H52.1699V49.0552H50.1367V47.0335Z" fill="#F8C272"/>
<path d="M37.9395 47.0335H39.9726V49.0552H37.9395V47.0335Z" fill="#F8C272"/>
<path d="M42.0052 47.0335H44.0384V49.0552H42.0052V47.0335Z" fill="#F8C272"/>
<path d="M42.3442 42.923H44.3768V44.9447H42.3442V42.923Z" fill="#F8C272"/>
<path d="M50.4757 42.923H52.5083V44.9447H50.4757V42.923Z" fill="#F8C272"/>
<path d="M46.4099 42.923H48.4426V44.9447H46.4099V42.923Z" fill="#F8C272"/>
<path d="M58.6072 42.923H60.6398V44.9447H58.6072V42.923Z" fill="#F8C272"/>
<path d="M54.5414 42.923H56.5741V44.9447H54.5414V42.923Z" fill="#F8C272"/>
<path d="M46.4099 51.144H48.4426V53.1652H46.4099V51.144Z" fill="#F8C272"/>
<path d="M50.4757 51.144H52.5083V53.1652H50.4757V51.144Z" fill="#F8C272"/>
<path d="M42.3442 51.144H44.3768V53.1652H42.3442V51.144Z" fill="#F8C272"/>
<path d="M58.6072 51.144H60.6398V53.1652H58.6072V51.144Z" fill="#F8C272"/>
<path d="M54.5414 51.144H56.5741V53.1652H54.5414V51.144Z" fill="#F8C272"/>
</g>
<defs>
<clipPath id="clip0">
<rect x="0.737671" width="69.5247" height="69" fill="white"/>
</clipPath>
</defs>
</svg>
