<svg width="32" height="52" viewBox="0 0 32 52" fill="none" xmlns="http://www.w3.org/2000/svg">
<g clip-path="url(#clip0)">
<path d="M4.89958 4.06623L5.36253 4.56952L5.36253 4.82439C5.64148 5.14701 5.91154 5.46963 6.17862 5.79226C6.40119 6.06326 6.60003 6.36008 6.83743 6.6214C7.07484 6.88272 7.33006 7.22793 7.60605 7.50539C7.88204 7.78284 8.19957 7.94738 8.35092 8.28613C8.53194 8.68296 8.94444 8.80556 9.15514 9.13786C9.37934 9.43651 9.61808 9.72189 9.87034 9.9928L9.95937 9.89602C10.7755 10.638 11.5767 11.4059 12.6302 11.8963C12.6302 11.9253 12.6777 12.0286 12.7193 12.1511L12.8884 12.006C13.4315 12.3286 14.0042 12.5964 14.5384 12.9254C15.1942 13.3287 15.9272 13.5707 16.5356 14.0804C16.8591 14.3365 17.2296 14.5137 17.6218 14.5999C17.8562 14.6579 17.8087 14.8225 17.8977 14.9547L18.1559 14.7805L19.4825 15.5387L19.2599 15.8C19.3994 16.0162 19.3934 16.3646 19.895 16.4453L19.3014 16.6679L19.7377 17.1066L20.0077 16.926L20.4173 17.1776C20.4173 17.2518 20.4173 17.3389 20.3876 17.3551C20.1888 17.468 19.981 17.5648 19.7941 17.6777C19.7228 18.0939 20.0908 18.0584 20.26 18.2326L20.1324 18.3745L20.2837 18.6972L19.6427 19.1843C18.9062 19.2117 18.1719 19.2871 17.4437 19.4102C17.0549 19.4908 16.6276 19.4102 16.3041 19.5908C15.9035 19.7973 15.4999 19.5908 15.1497 19.7521C14.7996 19.9134 14.3574 19.807 14.0042 19.9328C13.6511 20.0586 13.2089 19.9812 12.8558 20.1038C12.01 20.3974 11.093 20.3554 10.2858 20.7878C9.92376 20.6813 9.56468 21.0233 9.2056 20.7878C8.82556 21.0072 8.41066 21.1462 7.98294 21.1975C7.38941 21.3298 6.84634 21.6685 6.22017 21.6782C5.994 21.7369 5.7777 21.8338 5.57917 21.9653L7.78707 22.6622L8.13132 23.13L8.71297 22.959C9.443 23.2816 10.3244 23.2816 10.9654 23.9527C11.2117 23.6301 11.5589 23.872 11.826 23.7817C12.6896 24.2495 13.6214 24.2979 14.5948 24.5721L14.7817 24.798C15.129 24.9399 15.4999 24.7463 15.856 24.9915C16.1545 25.1595 16.4936 25.2226 16.8264 25.1722C17.1896 25.1366 17.5545 25.2162 17.877 25.4013C18.2301 25.6013 18.5536 25.4658 18.9127 25.569L19.1916 25.8916C19.9959 25.811 20.806 25.982 21.6459 26.0497L21.907 26.4207L22.735 26.4207C22.6341 26.553 22.5866 26.6111 22.4857 26.7434C22.6633 26.7305 22.8406 26.7739 22.996 26.8684C23.1514 26.9629 23.2782 27.1044 23.3611 27.2757L23.2246 27.5338L24.4324 28.8824C24.3701 29.1146 24.3226 29.2921 24.2633 29.5276L23.9873 29.6728L23.9873 29.8793L24.3048 29.9857C24.3404 30.5051 24.0585 30.8504 23.738 31.1665C23.3611 31.2343 23.3611 31.2343 23.1059 31.744L23.4472 31.5343C23.468 31.615 23.4887 31.7053 23.5184 31.8311L23.0021 31.915L23.1386 32.1021C22.8418 32.5473 22.545 32.9926 22.2156 33.4894L21.8566 33.4894L22.0465 33.7346L21.7497 33.8443L21.7497 34.2185L21.4915 34.4992C21.3135 34.3379 21.0286 34.3056 20.987 33.9862C20.7289 34.3798 21.0612 34.5508 21.2838 34.8315L20.8683 34.8702C20.6665 35.2316 20.3995 35.5445 20.3846 36.0414C20.3846 36.4575 19.9959 36.6608 19.616 36.8286L19.7911 37.0834L19.3519 37.177L19.3756 37.477C19.1553 37.7411 18.9686 38.0363 18.8207 38.3546C18.6397 38.8611 18.1322 39.0288 17.9571 39.5515C17.7738 40.0124 17.5109 40.4308 17.1826 40.7839C16.7612 41.3526 16.3746 41.9508 16.0252 42.5745L16.4763 42.5745L16.6365 42.2034L16.9897 42.4454C17.2079 42.3219 17.419 42.184 17.6218 42.0325C17.7879 41.8937 18.0758 41.8776 18.0758 41.5517C18.3726 41.6389 18.5477 41.3937 18.7257 41.2001C18.7791 41.2614 18.8177 41.3001 18.8474 41.3324C19.5207 40.6711 20.3003 40.1505 21.1473 39.7967L21.7408 39.0998L22.0109 39.0998L23.0317 38.3062L23.2929 38.7675L23.9428 38.3642C23.8923 38.1352 23.8478 37.9384 23.8033 37.7416L25.2871 36.664C25.2283 36.8923 25.1072 37.0959 24.9399 37.248C25.2604 37.4609 25.3316 37.0834 25.5067 36.9802L25.8302 37.2383C25.8717 37.0737 25.9074 36.9157 25.943 36.7673L26.0676 36.8963L25.8777 36.5479L26.4475 36.2252L26.6463 36.4156L26.8303 36.2349C26.7887 35.993 26.7442 35.7381 26.7056 35.509L28.6019 34.3218L28.6672 34.3927C28.6227 34.4605 28.5752 34.5282 28.4654 34.7154L29.602 34.4863C29.694 34.8089 29.7801 35.1316 29.8988 35.5897L30.1956 35.8446C29.4399 36.427 28.7284 37.0743 28.0678 37.7803C27.1359 38.6901 26.0706 39.3934 25.1002 40.2225C24.1297 41.0517 22.9635 41.8195 21.8892 42.6099C21.2779 43.0616 20.6784 43.5326 20.0582 43.9714C19.1887 44.5844 18.3281 45.2135 17.42 45.7587C17.0223 45.9975 16.7255 46.3814 16.2656 46.5492C15.8709 46.6943 15.5444 47.0621 15.1913 47.3331C14.264 48.0015 13.3723 48.7264 12.5204 49.5044C11.9803 50.027 11.3749 50.4723 10.7161 51.0304L9.76351 51.0304C9.76351 50.7755 9.66558 50.5013 9.92079 50.2206L9.32727 50.1496C8.96328 49.416 8.83978 48.5694 8.97709 47.7493L9.46675 47.3493L9.96234 47.1363L9.7368 46.4556C9.95344 46.133 10.1463 45.8104 10.3867 45.5168C10.6271 45.2232 10.5737 44.8038 11.0811 44.8715C10.9624 44.7393 10.9238 44.7005 10.8526 44.6231C11.2295 44.465 11.1494 43.823 11.6479 43.8133C11.6658 43.6585 11.6806 43.523 11.6984 43.3584L11.918 43.3036C12.286 42.2551 12.9774 41.4291 13.6184 40.5452C13.6184 40.4806 13.5888 40.3709 13.6184 40.3064C13.7609 40.0483 13.8796 39.6612 14.0962 39.5773C14.4464 39.4224 14.4256 38.8546 14.8886 38.8933C14.8886 38.6804 14.9123 38.4836 14.9212 38.2707L15.218 38.1513L15.2358 37.7609L15.9154 37.0608C16.0014 37.2576 16.0519 37.3835 16.1201 37.5351L16.503 36.9157L16.3219 36.593C16.4496 36.5291 16.5693 36.4478 16.6781 36.3511C16.7424 36.2397 16.7895 36.1176 16.8175 35.9897L16.6157 35.6671L17.0579 35.3832L17.4793 35.5155L17.4793 35.1574C17.7553 34.9993 17.9482 34.8896 18.0254 34.5121C18.153 33.8669 18.5299 33.2765 18.8177 32.6764C18.8622 32.5828 19.0195 32.557 19.1145 32.499L19.0195 32.3731C19.2136 32.0867 19.4301 31.819 19.6665 31.573C19.9591 31.3619 20.2679 31.1784 20.5894 31.0246C20.6606 30.8342 20.4914 30.7826 20.0522 30.8794L20.5449 30.4503L20.9514 30.6697C20.8624 30.4277 20.806 30.2632 20.7378 30.0793L20.898 29.8438C20.8238 29.7696 20.7259 29.5986 20.6517 29.6083C20.3239 29.6212 20.0015 29.5157 19.7347 29.3082C19.1412 29.476 18.6218 29.1211 18.0728 29.0533C17.4694 28.989 16.8731 28.8616 16.2923 28.6727C15.7495 28.457 15.1876 28.3034 14.6156 28.2145C14.022 28.1565 13.473 27.9209 12.8943 27.8177C12.3007 27.7011 11.7177 27.5273 11.1524 27.2983C10.6063 27.0853 10.0306 27.024 9.48158 26.8047C8.91662 26.5755 8.33488 26.3985 7.74256 26.2756C7.14904 26.1562 6.65048 25.8691 6.0896 25.7174C5.52872 25.5658 4.97674 25.3948 4.42773 25.1916C3.87872 24.9883 3.30597 24.7399 2.74212 24.5237C2.17827 24.3076 1.65301 24.1172 1.06245 23.8946L0.543117 23.3332L0.688529 23.1558C0.715238 22.7783 0.41551 22.7848 0.255258 22.6848C0.189969 22.3073 0.130618 21.9524 0.0653298 21.5685L0.198873 21.4136C-0.180983 20.9555 0.106876 20.5619 0.347253 20.2199C0.615485 19.8752 0.906064 19.5517 1.21677 19.2521C1.99428 19.1327 2.6709 18.4455 3.56118 18.7068C3.58493 18.5778 3.59976 18.4971 3.62647 18.3616L5.18447 18.0842L5.23789 17.8906C5.686 17.7551 6.12817 17.6099 6.55848 17.497C6.73164 17.4328 6.91948 17.4328 7.09265 17.497C7.23276 17.6003 7.39816 17.6556 7.56747 17.6556C7.73677 17.6556 7.90218 17.6003 8.04229 17.497C8.19363 17.4002 8.42214 17.4389 8.6091 17.297L7.97403 17.297C8.01855 17.1905 8.03932 17.1131 8.05416 17.1163C8.46307 17.1156 8.86736 17.0222 9.24121 16.8421C9.53033 16.7028 9.85771 16.6901 10.1552 16.8066C10.452 16.9937 10.7161 16.8518 11.1138 17.0002C10.9951 16.8163 10.9595 16.7647 10.9238 16.713C11.4046 16.3904 11.6064 16.2839 11.9833 16.4872C12.28 16.6485 12.5353 16.5227 12.8172 16.4485L12.0159 16.3485L13.4255 16.0258C12.1465 15.4 11.188 14.5257 10.1612 13.7675C9.31526 13.2033 8.5719 12.475 7.9681 11.6188C7.84939 11.4575 7.63869 11.3769 7.50812 11.222C7.27961 10.951 7.10155 10.6316 6.86711 10.3735C6.63267 10.1154 6.34778 9.98635 6.14598 9.72825C5.61181 9.08301 5.17854 8.3184 4.59985 7.69573C4.54346 7.63444 4.57611 7.47312 4.56721 7.3473C4.45147 7.26987 4.28825 7.21503 4.21109 7.09566C3.81857 6.51935 3.45786 5.91821 3.13088 5.29542C2.88457 4.79536 2.60264 4.32756 2.38897 3.78555C2.22713 3.26716 2.10018 2.73665 2.00912 2.19824C1.89904 1.62553 1.98226 1.02888 2.24356 0.517382C2.81334 1.05294 3.35345 0.375426 3.92917 0.410914L3.11604 0.343161L3.11604 0.201212L4.12503 0.201212C4.30605 0.201212 4.50489 0.256052 4.62656 0.0366692C4.72746 0.294768 4.92332 -0.00849301 5.02422 0.104422C5.20524 0.310904 5.2913 -0.124639 5.48123 0.0528015C5.6091 0.14205 5.75671 0.192198 5.90857 0.197981C6.08648 0.209238 6.26483 0.209238 6.44274 0.197981L6.57332 0.607714L6.69796 0.220568L7.0511 0.18508C7.20542 0.35607 7.38941 0.556093 7.5556 0.733538L7.89687 0.714178L8.01855 0.349615L8.18473 0.72386L8.36279 0.72386L8.52304 0.359293C8.98896 0.523832 9.41333 0.759344 9.92969 0.746439C10.1841 0.79038 10.4293 0.883245 10.6538 1.02067L10.7458 0.943239L12.102 1.34329L11.6984 1.7014C11.9333 1.74368 12.1745 1.71119 12.3928 1.60785C12.4148 1.62211 12.4356 1.6383 12.4551 1.65624C12.4967 1.69818 12.5323 1.74012 12.5768 1.78851C12.6124 1.74657 12.648 1.7014 12.6866 1.65946C12.7062 1.63962 12.727 1.62129 12.7489 1.60462L13.4582 1.85626L13.4582 2.63378L13.568 2.69185L13.7935 2.31116L13.5977 1.92401L14.574 2.18534L14.6274 2.45634C15.037 2.15307 15.3367 2.39827 15.6424 2.65314C15.7416 2.73642 15.8544 2.7988 15.9747 2.83704C16.2388 2.92737 16.5089 2.99835 16.8294 3.0919L16.8977 3.34355L17.5149 3.29838C17.4674 3.25644 17.5149 3.3242 17.5743 3.35C18.0699 3.53713 18.5862 3.67263 19.0581 3.89524C19.1026 3.91782 19.162 3.89524 19.2124 3.91459C19.5388 4.0017 19.6872 4.45983 20.07 4.42434C20.4529 4.38885 20.6191 4.68244 20.9069 4.78245C21.1948 4.88246 21.5004 5.02765 21.815 5.15669C21.9001 5.21237 21.9894 5.25986 22.0821 5.29864C22.2054 5.31212 22.3297 5.31212 22.453 5.29864L22.6994 5.6503L23.2573 5.6503C23.5807 6.01809 23.9042 6.39879 24.4443 6.35685C24.4694 6.35315 24.495 6.35496 24.5194 6.36216C24.5439 6.36937 24.5668 6.38182 24.5868 6.39879C25.0497 6.9666 25.7738 6.9666 26.3258 7.36665C26.8778 7.7667 27.5128 7.95383 28.0707 8.29581C28.8216 8.75071 29.5397 9.26367 30.2697 9.75406C30.3393 9.7991 30.3975 9.86231 30.4389 9.93795C30.7802 10.6348 31.1304 11.3446 31.4271 11.964C31.35 12.3963 31.2876 12.7512 31.2045 13.2093L30.6526 13.5771C30.2193 13.3932 29.792 13.2545 29.3854 13.0351C28.9741 12.8334 28.5773 12.5983 28.1984 12.3318C27.3793 11.7414 26.4593 11.3639 25.6106 10.8413C25.1061 10.5187 24.5185 10.3864 24.1001 9.91214C23.1504 9.64114 22.3195 9.09591 21.4292 8.6636C21.0522 8.44877 20.6603 8.26646 20.257 8.11837C19.8712 8.00545 19.5032 7.83123 19.1263 7.68282C17.9393 7.22793 16.779 6.76335 15.6008 6.31813C14.9855 6.08584 14.3673 5.87076 13.746 5.67289C13.1169 5.47286 12.4611 5.35026 11.8557 5.1083C10.7933 4.70825 9.67745 4.64049 8.61207 4.28561C8.02786 4.1435 7.43002 4.07851 6.8315 4.09204C6.23798 4.04365 5.65335 4.06623 4.89958 4.06623Z" fill="#E84323"/>
</g>
<defs>
<clipPath id="clip0">
<rect x="31.4271" y="51.026" width="31.4271" height="51.026" transform="rotate(180 31.4271 51.026)" fill="white"/>
</clipPath>
</defs>
</svg>
