<svg width="64" height="64" viewBox="0 0 64 64" fill="none" xmlns="http://www.w3.org/2000/svg">
<g clip-path="url(#clip0)">
<path d="M31.1963 2.6561H33.0709V12.4204H31.1963V2.6561Z" fill="#F8C272"/>
<path d="M41.6626 14.5548L46.6326 6.14775L48.2468 7.10199L43.2768 15.5091L41.6626 14.5548Z" fill="#F8C272"/>
<path d="M49.8481 20.9335L57.9232 15.4459L58.9768 16.9962L50.9017 22.4838L49.8481 20.9335Z" fill="#F8C272"/>
<path d="M15.7565 7.12079L17.3706 6.16654L22.3407 14.5736L20.7265 15.5279L15.7565 7.12079Z" fill="#F8C272"/>
<path d="M5.01807 16.977L6.07161 15.4267L14.1467 20.9142L13.0931 22.4645L5.01807 16.977Z" fill="#F8C272"/>
<path d="M60.7636 46.4323H53.6456V42.5462L52.477 39.2414L50.7096 39.8663L51.7708 42.8678V46.4323H32.9371V43.788H41.3543V41.9134H33.2747L35.6244 35.27H43.2914V35.2697H49.0835L50.0835 38.0981L51.8509 37.4731L50.409 33.3951H43.2914V29.5089L40.055 20.3583H23.9445L20.7081 29.5089V33.3954H13.5902L10.3538 42.5459V46.4326H3.23648L0 55.5822V61.3433H15.6206V59.4687H1.87463V56.8249H9.91602V54.9503H2.21193L4.56184 48.3071H18.0212L20.7083 55.9039V59.4687H17.4953V61.3433L64 61.3438V55.5827L60.7636 46.4323ZM43.99 48.3071L42.3541 52.9326L40.7181 48.3071H43.99ZM31.9999 39.8958L30.3638 35.27H33.6359L31.9999 39.8958ZM22.5829 29.8572L25.27 22.233H38.7297L41.4167 29.8306V33.395L22.5829 33.3952V29.8572ZM14.9158 35.27H28.3755L31.0626 42.8676V46.4323H12.2287V43.788H20.1272V41.9134H12.5661L14.9158 35.27ZM23.2816 48.3069L21.6457 52.9325L20.0095 48.3069H23.2816ZM41.4167 59.4692H22.583V56.8249H31.1432V54.9503H22.9204L25.2701 48.3069L38.7299 48.3071L41.4169 55.9045V59.4692H41.4167ZM43.2914 59.4692V55.9045L45.9785 48.3071L59.4382 48.3069L61.7878 54.9503H53.9581V56.8249H62.1254V59.4692H43.2914Z" fill="#F8C272"/>
<path d="M38.812 30.3679H36.9373V28.4932H38.812V30.3679ZM33.1881 30.3679H31.3135V28.4932H33.1881V30.3679ZM27.5642 30.3679H25.6896V28.4932H27.5642V30.3679Z" fill="#F8C272"/>
</g>
<defs>
<clipPath id="clip0">
<rect width="64" height="64" fill="white"/>
</clipPath>
</defs>
</svg>
